<svg width="15" height="15" viewBox="0 0 15 15" fill="none" xmlns="http://www.w3.org/2000/svg">
<path d="M12.0001 9C12.0014 9.20386 11.9394 9.40311 11.8228 9.57033C11.7062 9.73754 11.5406 9.86451 11.3488 9.93375L8.1251 11.125L6.9376 14.3512C6.86728 14.5423 6.74005 14.7072 6.57307 14.8236C6.4061 14.9401 6.20743 15.0025 6.00385 15.0025C5.80027 15.0025 5.6016 14.9401 5.43462 14.8236C5.26765 14.7072 5.14042 14.5423 5.0701 14.3512L3.8751 11.125L0.648849 9.9375C0.457805 9.86718 0.292928 9.73995 0.176466 9.57298C0.0600027 9.406 -0.00244141 9.20733 -0.00244141 9.00375C-0.00244141 8.80017 0.0600027 8.6015 0.176466 8.43452C0.292928 8.26755 0.457805 8.14032 0.648849 8.07L3.8751 6.875L5.0626 3.64875C5.13292 3.45771 5.26015 3.29283 5.42712 3.17637C5.5941 3.0599 5.79277 2.99746 5.99635 2.99746C6.19993 2.99746 6.3986 3.0599 6.56557 3.17637C6.73255 3.29283 6.85978 3.45771 6.9301 3.64875L8.1251 6.875L11.3513 8.0625C11.5432 8.13237 11.7087 8.26008 11.8249 8.42801C11.9411 8.59594 12.0023 8.7958 12.0001 9ZM8.5001 3H9.5001V4C9.5001 4.13261 9.55278 4.25979 9.64655 4.35355C9.74031 4.44732 9.86749 4.5 10.0001 4.5C10.1327 4.5 10.2599 4.44732 10.3537 4.35355C10.4474 4.25979 10.5001 4.13261 10.5001 4V3H11.5001C11.6327 3 11.7599 2.94732 11.8537 2.85355C11.9474 2.75979 12.0001 2.63261 12.0001 2.5C12.0001 2.36739 11.9474 2.24021 11.8537 2.14645C11.7599 2.05268 11.6327 2 11.5001 2H10.5001V1C10.5001 0.867392 10.4474 0.740215 10.3537 0.646447C10.2599 0.552678 10.1327 0.5 10.0001 0.5C9.86749 0.5 9.74031 0.552678 9.64655 0.646447C9.55278 0.740215 9.5001 0.867392 9.5001 1V2H8.5001C8.36749 2 8.24031 2.05268 8.14655 2.14645C8.05278 2.24021 8.0001 2.36739 8.0001 2.5C8.0001 2.63261 8.05278 2.75979 8.14655 2.85355C8.24031 2.94732 8.36749 3 8.5001 3ZM14.0001 5H13.5001V4.5C13.5001 4.36739 13.4474 4.24021 13.3537 4.14645C13.2599 4.05268 13.1327 4 13.0001 4C12.8675 4 12.7403 4.05268 12.6465 4.14645C12.5528 4.24021 12.5001 4.36739 12.5001 4.5V5H12.0001C11.8675 5 11.7403 5.05268 11.6465 5.14645C11.5528 5.24021 11.5001 5.36739 11.5001 5.5C11.5001 5.63261 11.5528 5.75979 11.6465 5.85355C11.7403 5.94732 11.8675 6 12.0001 6H12.5001V6.5C12.5001 6.63261 12.5528 6.75979 12.6465 6.85355C12.7403 6.94732 12.8675 7 13.0001 7C13.1327 7 13.2599 6.94732 13.3537 6.85355C13.4474 6.75979 13.5001 6.63261 13.5001 6.5V6H14.0001C14.1327 6 14.2599 5.94732 14.3537 5.85355C14.4474 5.75979 14.5001 5.63261 14.5001 5.5C14.5001 5.36739 14.4474 5.24021 14.3537 5.14645C14.2599 5.05268 14.1327 5 14.0001 5Z" fill="black"/>
</svg>
