<svg width="132" height="40" viewBox="0 0 132 40" fill="none" xmlns="http://www.w3.org/2000/svg">
<path d="M18.9746 13.9727C19.248 13.5495 19.7428 13.3379 20.459 13.3379C21.1751 13.3379 21.5332 13.5137 21.5332 13.8652C21.5332 14.0671 21.3444 14.4349 20.9668 14.9688C20.5892 15.5026 20.1953 16.1895 19.7852 17.0293C18.5352 19.5749 17.8939 20.89 17.8613 20.9746C17.3926 22.1465 17.1582 23.3802 17.1582 24.6758C17.1582 24.8711 17.2038 25.1348 17.2949 25.4668C17.3861 25.7923 17.4316 26.0007 17.4316 26.0918C17.4316 26.4108 17.3014 26.6582 17.041 26.834C16.7806 27.0098 16.4095 27.0977 15.9277 27.0977C15.4525 27.0977 15.1009 27.0163 14.873 26.8535C14.6452 26.6842 14.5312 26.4173 14.5312 26.0527C14.5312 25.9355 14.5931 25.7109 14.7168 25.3789C14.847 25.0469 14.9512 24.7409 15.0293 24.4609C15.1139 24.1745 15.1562 23.6634 15.1562 22.9277C15.1562 22.1921 14.9642 21.4238 14.5801 20.623C14.5215 20.5059 14.0853 19.6986 13.2715 18.2012C12.4642 16.6973 11.9629 15.8151 11.7676 15.5547C11.1426 14.7344 10.8301 14.2331 10.8301 14.0508C10.8301 13.7188 11.2533 13.5527 12.0996 13.5527C12.9525 13.5527 13.5059 13.7676 13.7598 14.1973C13.8118 14.2884 13.877 14.5065 13.9551 14.8516C14.0332 15.1901 14.4108 16.0332 15.0879 17.3809C15.765 18.7285 16.1751 19.4023 16.3184 19.4023C16.5853 19.4023 17.1842 18.4518 18.1152 16.5508C18.3822 16.0039 18.5775 15.4603 18.7012 14.9199C18.8249 14.3796 18.916 14.0638 18.9746 13.9727ZM26.099 20.0078V20.5059C26.099 21.9642 26.3756 23.1556 26.929 24.0801C27.2546 24.627 27.6582 25.0469 28.14 25.3398C28.6283 25.6263 29.0775 25.7695 29.4876 25.7695H29.9466C30.4479 25.7695 30.9134 25.6328 31.3431 25.3594C32.1569 24.8451 32.7201 23.9954 33.0326 22.8105C33.2474 22.0033 33.3548 21.1667 33.3548 20.3008V19.9688C33.3548 19.9427 33.3548 19.9167 33.3548 19.8906C33.3548 19.2135 33.2734 18.5234 33.1107 17.8203C32.8047 16.4596 32.2383 15.5156 31.4115 14.9883C30.9297 14.6888 30.4349 14.5391 29.9271 14.5391H29.6146C29.1719 14.5391 28.7194 14.6693 28.2572 14.9297C27.4108 15.4049 26.8021 16.2578 26.431 17.4883C26.2096 18.224 26.099 19.0638 26.099 20.0078ZM35.7279 19.666V20.3398C35.7279 21.2513 35.5814 22.1693 35.2884 23.0938C34.735 24.8451 33.7129 26.0495 32.222 26.707C31.4212 27.0651 30.6074 27.2441 29.7806 27.2441H29.5658C27.8796 27.2441 26.5026 26.6094 25.4349 25.3398C24.9922 24.806 24.6341 24.1159 24.3607 23.2695C24.0937 22.4232 23.9603 21.554 23.9603 20.6621V20.2129C23.9603 19.2624 24.097 18.3184 24.3704 17.3809C24.6374 16.4368 25.0573 15.6393 25.6302 14.9883C26.7109 13.7513 28.0944 13.1328 29.7806 13.1328H30.2201C30.8906 13.1328 31.5905 13.2891 32.3197 13.6016C33.7845 14.2201 34.7904 15.4017 35.3372 17.1465C35.5977 17.9668 35.7279 18.8066 35.7279 19.666ZM43.028 19.9785H43.2721C44.3008 19.9785 45.1178 19.7409 45.7233 19.2656C46.3288 18.7904 46.6315 18.1556 46.6315 17.3613V16.8828C46.6315 16.1797 46.4004 15.6198 45.9381 15.2031C45.4824 14.7799 44.8477 14.5684 44.0339 14.5684H43.6921L43.6042 14.5781L43.2721 14.5977C43.1549 14.6107 43.0736 14.6172 43.028 14.6172C42.4746 14.6172 42.1979 14.8809 42.1979 15.4082L42.1686 15.6621L42.1491 16.0234C42.1491 16.082 42.1491 16.1406 42.1491 16.1992L42.1393 16.2969V16.7461L42.1296 17.0195V18.6602L42.1198 18.9336C42.1198 19.3828 42.1751 19.6693 42.2858 19.793C42.3965 19.9167 42.6439 19.9785 43.028 19.9785ZM40.0299 16.4629C40.0234 16.2741 40.0202 16.0007 40.0202 15.6426C40.0202 15.278 39.9876 14.9102 39.9225 14.5391C39.8574 14.168 39.8249 13.9401 39.8249 13.8555C39.8249 13.6016 40.0788 13.429 40.5866 13.3379C41.0944 13.2467 41.9863 13.2012 43.2624 13.2012H43.8678C46.3548 13.2012 47.9108 13.9531 48.5358 15.457C48.6986 15.8542 48.7799 16.3457 48.7799 16.9316C48.7799 17.5111 48.666 18.0352 48.4381 18.5039C48.2103 18.9661 47.8652 19.4414 47.403 19.9297C46.9473 20.4115 46.7194 20.8151 46.7194 21.1406C46.7194 21.4596 46.9993 22.1139 47.5592 23.1035C48.1256 24.0866 48.5423 24.7214 48.8092 25.0078C49.3301 25.5547 49.5905 25.9355 49.5905 26.1504V26.3262C49.5905 26.6322 49.3496 26.7852 48.8678 26.7852H48.6335C48.1908 26.7852 47.7839 26.5898 47.4128 26.1992C47.1979 25.9714 46.7422 25.278 46.0456 24.1191C45.349 22.9538 44.9616 22.3288 44.8835 22.2441C44.4733 21.7884 44.0273 21.5605 43.5456 21.5605C43.0638 21.5605 42.6992 21.8177 42.4518 22.332C42.3281 22.5859 42.2663 22.9668 42.2663 23.4746C42.2663 23.9824 42.3086 24.4577 42.3932 24.9004C42.4779 25.3366 42.5202 25.5872 42.5202 25.6523C42.5202 26.0365 42.3672 26.3164 42.0612 26.4922C41.7617 26.668 41.3874 26.7559 40.9381 26.7559C40.4889 26.7559 40.1764 26.6875 40.0006 26.5508C39.6881 26.3099 39.5319 25.9779 39.5319 25.5547C39.5319 25.3919 39.6068 25.1413 39.7565 24.8027C39.9128 24.4577 40.0072 24.1387 40.0397 23.8457C40.0788 23.5527 40.0983 22.8822 40.0983 21.834V19.0605L40.0885 18.7676C40.082 18.5723 40.0788 18.377 40.0788 18.1816L40.0495 17.0293L40.0299 16.4629ZM55.6699 26.9512H55.1133C54.612 26.9512 54.1986 26.8698 53.873 26.707C53.554 26.5443 53.3945 26.3652 53.3945 26.1699C53.3945 25.9681 53.5052 25.6556 53.7266 25.2324C53.9479 24.8092 54.0944 24.3307 54.166 23.7969C54.2441 23.263 54.2832 21.9805 54.2832 19.9492C54.2832 17.9115 54.2474 16.6647 54.1758 16.209C54.1107 15.7467 53.9642 15.3464 53.7363 15.0078C53.515 14.6628 53.4043 14.373 53.4043 14.1387C53.4043 13.8978 53.5768 13.696 53.9219 13.5332C54.2734 13.3704 54.7519 13.2891 55.3574 13.2891H55.7285C56.2233 13.2891 56.5879 13.377 56.8223 13.5527C57.0566 13.722 57.1738 13.8978 57.1738 14.0801V14.2168C57.1738 14.334 57.0859 14.5586 56.9102 14.8906C56.7409 15.2227 56.6237 15.6621 56.5586 16.209C56.5 16.7559 56.4707 18.2044 56.4707 20.5547C56.4707 22.8984 56.487 24.2038 56.5195 24.4707C56.5521 24.7376 56.6628 25.0404 56.8516 25.3789C57.0404 25.7174 57.1348 25.9941 57.1348 26.209C57.1348 26.4173 56.9883 26.5931 56.6953 26.7363C56.4089 26.8796 56.0671 26.9512 55.6699 26.9512ZM72.6087 17.5469C72.5762 17.4622 72.5046 17.4199 72.3939 17.4199C72.2897 17.4199 71.7493 18.5462 70.7728 20.7988C69.8027 23.0514 69.2331 24.3079 69.0638 24.5684C68.7643 25.0306 68.4486 25.2617 68.1165 25.2617C67.7845 25.2617 67.472 24.9753 67.179 24.4023C66.9967 24.0378 66.4792 22.7812 65.6263 20.6328C64.7799 18.4779 64.2591 17.4004 64.0638 17.4004C63.9792 17.4004 63.9108 17.485 63.8587 17.6543C63.5332 18.735 63.3704 20.9095 63.3704 24.1777C63.3704 25.0501 63.2728 25.6361 63.0775 25.9355C62.8822 26.2285 62.5273 26.375 62.013 26.375C61.5052 26.375 61.2513 26.1178 61.2513 25.6035C61.2513 25.5449 61.3359 25.2715 61.5052 24.7832C61.681 24.2949 61.7884 23.7513 61.8275 23.1523C61.9837 20.9193 62.0618 19.2135 62.0618 18.0352C62.0618 16.8568 62.0293 16.0332 61.9642 15.5645L61.8958 15.125C61.8307 14.7344 61.7982 14.4707 61.7982 14.334C61.7982 14.1908 61.8828 14.0475 62.0521 13.9043C62.2279 13.7611 62.4818 13.6895 62.8138 13.6895C63.569 13.6895 64.2168 14.0475 64.7572 14.7637C65.1413 15.265 65.8021 16.5378 66.7396 18.582C67.6836 20.6198 68.2533 21.6387 68.4486 21.6387L68.6634 21.3164L70.1575 18.2793C71.1081 16.3587 71.7266 15.1934 72.013 14.7832C72.5404 14.028 73.2435 13.6504 74.1224 13.6504C74.3893 13.6504 74.6139 13.7122 74.7962 13.8359C74.9785 13.9531 75.0697 14.1191 75.0697 14.334L75.0306 14.666L74.972 15.0566C74.9394 15.3366 74.9232 15.6458 74.9232 15.9844V17.0098L74.9329 18.0645C74.9329 18.4225 74.9394 18.9531 74.9525 19.6562V21.7754C74.9525 23.2533 75.0176 24.2201 75.1478 24.6758L75.2845 25.0469C75.4147 25.3984 75.4798 25.6296 75.4798 25.7402C75.4798 26.2806 75.0762 26.5508 74.2689 26.5508C73.8066 26.5508 73.4323 26.3132 73.1458 25.8379C72.9961 25.584 72.9212 25.2357 72.9212 24.793L72.9798 23.0059C72.9798 20.0111 72.8561 18.1914 72.6087 17.5469ZM81.8131 26.9512H81.2565C80.7552 26.9512 80.3418 26.8698 80.0163 26.707C79.6973 26.5443 79.5378 26.3652 79.5378 26.1699C79.5378 25.9681 79.6484 25.6556 79.8698 25.2324C80.0911 24.8092 80.2376 24.3307 80.3092 23.7969C80.3874 23.263 80.4264 21.9805 80.4264 19.9492C80.4264 17.9115 80.3906 16.6647 80.319 16.209C80.2539 15.7467 80.1074 15.3464 79.8795 15.0078C79.6582 14.6628 79.5475 14.373 79.5475 14.1387C79.5475 13.8978 79.72 13.696 80.0651 13.5332C80.4167 13.3704 80.8952 13.2891 81.5006 13.2891H81.8717C82.3665 13.2891 82.7311 13.377 82.9655 13.5527C83.1999 13.722 83.317 13.8978 83.317 14.0801V14.2168C83.317 14.334 83.2292 14.5586 83.0534 14.8906C82.8841 15.2227 82.7669 15.6621 82.7018 16.209C82.6432 16.7559 82.6139 18.2044 82.6139 20.5547C82.6139 22.8984 82.6302 24.2038 82.6628 24.4707C82.6953 24.7376 82.806 25.0404 82.9948 25.3789C83.1836 25.7174 83.278 25.9941 83.278 26.209C83.278 26.4173 83.1315 26.5931 82.8385 26.7363C82.5521 26.8796 82.2103 26.9512 81.8131 26.9512ZM91.1836 15.3691C89.8815 16.1309 89.2305 17.7617 89.2305 20.2617C89.2305 22.7682 89.9857 24.3796 91.4961 25.0957C91.9648 25.3171 92.5866 25.4277 93.3613 25.4277C94.1361 25.4277 95.0801 25.1055 96.1934 24.4609C96.4928 24.2852 96.7435 24.1973 96.9453 24.1973C97.2122 24.1973 97.3457 24.373 97.3457 24.7246C97.3457 24.9134 97.2318 25.1673 97.0039 25.4863C96.776 25.7988 96.4668 26.069 96.0762 26.2969C95.1582 26.8307 94.1035 27.0977 92.9121 27.0977H92.5996C91.7598 27.0977 90.9687 26.9382 90.2266 26.6191C88.7878 26.0007 87.8079 24.832 87.2871 23.1133C87.0527 22.332 86.9355 21.5085 86.9355 20.6426V20.3203C86.9355 19.3828 87.0723 18.4583 87.3457 17.5469C87.8795 15.776 88.918 14.5228 90.4609 13.7871C91.2812 13.403 92.2383 13.2109 93.332 13.2109C95.0963 13.2109 96.2292 13.6309 96.7305 14.4707C96.9388 14.8223 97.043 15.1315 97.043 15.3984C97.043 15.9648 96.8444 16.248 96.4473 16.248C96.3236 16.248 96.0436 16.0983 95.6074 15.7988C95.1712 15.4993 94.7318 15.278 94.2891 15.1348C93.8529 14.985 93.3581 14.9102 92.8047 14.9102C92.2513 14.9102 91.7109 15.0632 91.1836 15.3691ZM109.47 16.0527L109.245 14.5098C109.245 14.1322 109.415 13.849 109.753 13.6602C110.098 13.4714 110.505 13.377 110.974 13.377C111.449 13.377 111.784 13.4583 111.98 13.6211C112.182 13.7839 112.283 13.9466 112.283 14.1094V14.4316L112.204 14.7344L112.077 15.0176L111.96 15.3203C111.85 15.6849 111.794 16.8503 111.794 18.8164L111.775 20.4375C111.775 20.6198 111.768 20.89 111.755 21.248L111.726 22.0684C111.706 22.8887 111.697 23.4779 111.697 23.8359C111.697 24.1875 111.719 24.4642 111.765 24.666C111.817 24.8613 111.902 25.1022 112.019 25.3887C112.143 25.6751 112.204 25.8835 112.204 26.0137C112.204 26.3652 112.09 26.6029 111.863 26.7266C111.641 26.8503 111.296 26.9121 110.827 26.9121C110.365 26.9121 109.988 26.8047 109.695 26.5898C109.402 26.3685 109.255 26.1536 109.255 25.9453C109.255 25.737 109.281 25.4993 109.333 25.2324C109.392 24.959 109.437 24.6986 109.47 24.4512C109.509 24.2038 109.529 23.6113 109.529 22.6738C109.529 21.7363 109.353 21.1536 109.001 20.9258C108.754 20.763 108.174 20.6816 107.263 20.6816C105.473 20.6816 104.421 20.8574 104.109 21.209C103.861 21.4889 103.738 22.3092 103.738 23.6699C103.738 24.1777 103.751 24.5391 103.777 24.7539L103.826 25.0664L103.884 25.3496C103.923 25.571 103.943 25.7826 103.943 25.9844C103.943 26.1797 103.816 26.3652 103.562 26.541C103.308 26.7168 102.93 26.8047 102.429 26.8047C101.485 26.8047 101.013 26.515 101.013 25.9355C101.013 25.9225 101.133 25.5189 101.374 24.7246C101.511 24.2689 101.579 22.7227 101.579 20.0859L101.589 19.6855C101.596 19.3145 101.602 19.0215 101.609 18.8066C101.615 18.5918 101.618 18.1068 101.618 17.3516C101.618 16.5898 101.592 16.0853 101.54 15.8379C101.495 15.5905 101.4 15.3138 101.257 15.0078C101.12 14.7018 101.052 14.4609 101.052 14.2852C101.052 13.7318 101.505 13.4551 102.409 13.4551C102.878 13.4551 103.249 13.5462 103.523 13.7285C103.803 13.9043 103.943 14.1159 103.943 14.3633C103.943 14.4219 103.91 14.6497 103.845 15.0469C103.78 15.444 103.747 15.9355 103.747 16.5215C103.747 17.7389 103.917 18.4746 104.255 18.7285C104.6 18.9759 105.684 19.0996 107.507 19.0996C108.464 19.0996 109.031 18.9206 109.206 18.5625C109.382 18.1979 109.47 17.3613 109.47 16.0527ZM118.528 26.9512H117.971C117.47 26.9512 117.057 26.8698 116.731 26.707C116.412 26.5443 116.253 26.3652 116.253 26.1699C116.253 25.9681 116.363 25.6556 116.585 25.2324C116.806 24.8092 116.952 24.3307 117.024 23.7969C117.102 23.263 117.141 21.9805 117.141 19.9492C117.141 17.9115 117.105 16.6647 117.034 16.209C116.969 15.7467 116.822 15.3464 116.594 15.0078C116.373 14.6628 116.262 14.373 116.262 14.1387C116.262 13.8978 116.435 13.696 116.78 13.5332C117.132 13.3704 117.61 13.2891 118.215 13.2891H118.587C119.081 13.2891 119.446 13.377 119.68 13.5527C119.915 13.722 120.032 13.8978 120.032 14.0801V14.2168C120.032 14.334 119.944 14.5586 119.768 14.8906C119.599 15.2227 119.482 15.6621 119.417 16.209C119.358 16.7559 119.329 18.2044 119.329 20.5547C119.329 22.8984 119.345 24.2038 119.378 24.4707C119.41 24.7376 119.521 25.0404 119.71 25.3789C119.898 25.7174 119.993 25.9941 119.993 26.209C119.993 26.4173 119.846 26.5931 119.553 26.7363C119.267 26.8796 118.925 26.9512 118.528 26.9512Z" fill="black"/>
</svg>
